<svg width="118" height="36" viewBox="0 0 118 36" fill="none" xmlns="http://www.w3.org/2000/svg">
<g clip-path="url(#clip0_3_25)">
<path d="M70.7555 7.68176L68.5611 32.2653L58.6969 35L48.8599 32.2691L46.6677 7.68176H70.7555Z" fill="#E5E5E5" style="fill:#E5E5E5;fill:color(display-p3 0.8990 0.8990 0.8990);fill-opacity:1;"/>
<path d="M66.6822 30.6999L68.5575 9.69214H58.7114V32.9097L66.6822 30.6999Z" fill="white" style="fill:white;fill-opacity:1;"/>
<path d="M51.6931 18.8113L51.9634 21.8268H58.7116V18.8113H51.6931Z" fill="black" style="fill:black;fill-opacity:1;"/>
<path d="M58.7114 12.7078H58.701H51.1499L51.424 15.7233H58.7114V12.7078Z" fill="black" style="fill:black;fill-opacity:1;"/>
<path d="M58.7116 29.7804V26.643L58.6984 26.6465L55.34 25.7396L55.1253 23.3346H53.4933H52.0981L52.5206 28.0694L58.6977 29.7842L58.7116 29.7804Z" fill="black" style="fill:black;fill-opacity:1;"/>
<path d="M52.3367 1H55.989V2.52734H53.864V4.05469H55.989V5.58203H52.3367V1Z" fill="white" style="fill:white;fill-opacity:1;"/>
<path d="M56.7195 1H60.3718V2.32812H58.2468V2.59375H60.3718V5.64844H56.7195V4.25391H58.8445V3.98828H56.7195V1Z" fill="white" style="fill:white;fill-opacity:1;"/>
<path d="M61.1023 1H64.7546V2.32812H62.6296V2.59375H64.7546V5.64844H61.1023V4.25391H63.2273V3.98828H61.1023V1Z" fill="white" style="fill:white;fill-opacity:1;"/>
<path d="M62.4145 21.8268L62.0644 25.7377L58.7012 26.6455V29.7828L64.8832 28.0695L64.9286 27.56L65.6372 19.6211L65.7107 18.8113L66.2551 12.7078H58.7012V15.7233H62.9504L62.676 18.8113H58.7012V21.8268H62.4145Z" fill="#272727" style="fill:#272727;fill:color(display-p3 0.1518 0.1518 0.1518);fill-opacity:1;"/>
</g>
<defs>
<clipPath id="clip0_3_25">
<rect width="24.0878" height="34" fill="white" style="fill:white;fill-opacity:1;" transform="translate(46.6677 1)"/>
</clipPath>
</defs>
</svg>
