<svg width="110" height="36" viewBox="0 0 110 36" fill="none" xmlns="http://www.w3.org/2000/svg">
<g clip-path="url(#clip0_3_26)">
<mask id="mask0_3_26" style="mask-type:alpha" maskUnits="userSpaceOnUse" x="13" y="3" width="84" height="31">
<path fill-rule="evenodd" clip-rule="evenodd" d="M69.8425 12.8484C70.1689 13.5927 70.3321 14.3879 70.3321 15.2341C70.3321 14.3879 70.49 13.5927 70.8061 12.8484C71.1322 12.1042 71.5706 11.4568 72.1211 10.9063C72.6718 10.3557 73.3191 9.92246 74.0633 9.60642C74.8075 9.28017 75.6029 9.11706 76.4489 9.11706C75.6029 9.11706 74.8075 8.95903 74.0633 8.64297C73.3191 8.31674 72.6718 7.87835 72.1211 7.32782C71.5706 6.77728 71.1322 6.12989 70.8061 5.38565C70.49 4.64141 70.3321 3.84619 70.3321 3C70.3321 3.84619 70.1689 4.64141 69.8425 5.38565C69.5267 6.12989 69.0933 6.77728 68.5428 7.32782C67.9923 7.87835 67.3448 8.31674 66.6006 8.64297C65.8563 8.95903 65.0612 9.11706 64.215 9.11706C65.0612 9.11706 65.8563 9.28017 66.6006 9.60642C67.3448 9.92246 67.9923 10.3557 68.5428 10.9063C69.0933 11.4568 69.5267 12.1042 69.8425 12.8484ZM20.1541 32.4208C21.402 32.9347 22.7324 33.1915 24.1455 33.1915C25.5769 33.1915 26.8798 32.9622 28.0543 32.5034C29.2287 32.0447 30.2472 31.3932 31.1097 30.5491C31.9722 29.705 32.642 28.7048 33.1192 27.5487C33.5963 26.3742 33.8349 25.0896 33.8349 23.6949V23.6674C33.8349 23.4105 33.8165 23.1719 33.7798 22.9517C33.7615 22.7315 33.7339 22.5021 33.6972 22.2635H24.2005V24.5482H31.3575C31.284 25.6493 31.0271 26.6036 30.5867 27.4111C30.1646 28.2002 29.6233 28.8515 28.9626 29.3655C28.3203 29.8791 27.5771 30.2645 26.733 30.5216C25.9072 30.76 25.0447 30.8795 24.1455 30.8795C23.1545 30.8795 22.191 30.6958 21.2551 30.3288C20.3192 29.9618 19.4843 29.4297 18.7502 28.7323C18.0345 28.0349 17.4656 27.1999 17.0436 26.2274C16.6215 25.2364 16.4104 24.1262 16.4104 22.8966C16.4104 21.6671 16.6123 20.5661 17.016 19.5934C17.4381 18.6025 18.007 17.7675 18.7227 17.0885C19.4384 16.3912 20.2642 15.859 21.2001 15.492C22.1544 15.1249 23.1362 14.9414 24.1455 14.9414C24.8979 14.9414 25.6136 15.0424 26.2925 15.2442C26.9715 15.4277 27.5955 15.6938 28.1643 16.0425C28.7516 16.3912 29.2562 16.8132 29.6783 17.3087L31.385 15.547C30.5592 14.6111 29.504 13.8862 28.2194 13.3724C26.9532 12.8586 25.5952 12.6017 24.1455 12.6017C22.7508 12.6017 21.4295 12.8586 20.1816 13.3724C18.9521 13.8862 17.8602 14.6111 16.9059 15.547C15.97 16.4829 15.236 17.5748 14.7038 18.8227C14.1716 20.0706 13.9055 21.4286 13.9055 22.8966C13.9055 24.3647 14.1716 25.7227 14.7038 26.9705C15.236 28.2184 15.97 29.3103 16.9059 30.2464C17.8418 31.1822 18.9246 31.9071 20.1541 32.4208ZM38.7672 32.2282C39.8314 32.8704 41.0427 33.1915 42.4007 33.1915C43.942 33.1915 45.2358 32.843 46.282 32.1455C47.328 31.4484 48.1262 30.5675 48.6767 29.5031L46.5847 28.512C46.1993 29.2094 45.667 29.7967 44.9882 30.2738C44.3274 30.751 43.5017 30.9894 42.5106 30.9894C41.7399 30.9894 40.9968 30.7968 40.281 30.4115C39.5654 30.0261 38.9782 29.4479 38.5194 28.6774C38.1231 28.0112 37.8978 27.1946 37.844 26.2274H48.897C48.9154 26.1356 48.9245 26.0163 48.9245 25.8695C48.9429 25.7227 48.9519 25.5851 48.9519 25.4566C48.9519 24.0619 48.6767 22.8232 48.1262 21.7405C47.5939 20.6578 46.8232 19.8136 45.8139 19.2081C44.8045 18.5841 43.6027 18.2721 42.2079 18.2721C40.8315 18.2721 39.6297 18.6208 38.6019 19.3182C37.5743 19.9972 36.776 20.9055 36.2071 22.0433C35.6566 23.1811 35.3813 24.4198 35.3813 25.7594C35.3813 27.1908 35.6749 28.4662 36.2622 29.5857C36.8678 30.7051 37.7027 31.586 38.7672 32.2282ZM37.9843 24.2179C38.0707 23.8094 38.1943 23.424 38.3541 23.0618C38.7029 22.2727 39.2075 21.6488 39.8682 21.19C40.5472 20.7128 41.3363 20.4743 42.2354 20.4743C42.9877 20.4743 43.6209 20.6027 44.1348 20.8597C44.6487 21.0982 45.0707 21.4102 45.4011 21.7956C45.7313 22.1809 45.97 22.5938 46.1167 23.0343C46.2636 23.4564 46.346 23.8509 46.3644 24.2179H37.9843ZM51.0571 18.7126V32.7512H53.5345V24.9336C53.5345 24.1629 53.6905 23.438 54.0025 22.759C54.3145 22.08 54.7458 21.5387 55.2963 21.1349C55.8467 20.7128 56.4708 20.5018 57.168 20.5018C58.1406 20.5018 58.893 20.7863 59.4253 21.3551C59.9758 21.9057 60.251 22.8508 60.251 24.1904V32.7512H62.7009V24.8786C62.7009 24.1078 62.8569 23.3921 63.169 22.7315C63.4808 22.0525 63.912 21.5111 64.4627 21.1074C65.0132 20.7037 65.637 20.5018 66.3344 20.5018C67.3255 20.5018 68.0869 20.7771 68.6192 21.3276C69.1697 21.8782 69.4449 22.8232 69.4449 24.1629V32.7512H71.8948V23.75C71.8948 22.1167 71.4911 20.7954 70.6838 19.7861C69.8946 18.7768 68.6558 18.2721 66.9676 18.2721C65.8482 18.2721 64.8847 18.5291 64.0773 19.0429C63.2698 19.5567 62.6276 20.2082 62.1504 20.9973C61.82 20.1898 61.2786 19.5384 60.5263 19.0429C59.7923 18.5291 58.9023 18.2721 57.8563 18.2721C57.269 18.2721 56.6818 18.3914 56.0945 18.63C55.5256 18.8502 55.021 19.153 54.5805 19.5384C54.1401 19.9054 53.7915 20.3183 53.5345 20.7771H53.4243V18.7126H51.0571ZM74.1245 18.7126V32.7512H76.5744V18.7126H74.1245ZM74.097 15.7397C74.4456 16.07 74.8587 16.2352 75.3358 16.2352C75.8311 16.2352 76.2442 16.07 76.5744 15.7397C76.9048 15.391 77.0699 14.9781 77.0699 14.501C77.0699 14.0055 76.9048 13.5926 76.5744 13.2623C76.2442 12.9136 75.8311 12.7393 75.3358 12.7393C74.8587 12.7393 74.4456 12.9136 74.097 13.2623C73.7666 13.5926 73.6015 14.0055 73.6015 14.501C73.6015 14.9781 73.7666 15.391 74.097 15.7397ZM78.8752 18.7126V32.7512H81.3526V24.9336C81.3526 24.1812 81.5086 23.4747 81.8206 22.8141C82.151 22.1351 82.6004 21.5845 83.1693 21.1624C83.7382 20.722 84.4081 20.5018 85.1789 20.5018C86.2065 20.5018 87.0324 20.7863 87.6563 21.3551C88.2801 21.9057 88.5921 22.8508 88.5921 24.1904V32.7512H91.0695V23.75C91.0695 22.0984 90.6292 20.7771 89.7482 19.7861C88.8673 18.7768 87.5736 18.2721 85.867 18.2721C84.8578 18.2721 83.9401 18.5199 83.1144 19.0154C82.2886 19.5109 81.6921 20.0981 81.3251 20.7771H81.2149V18.7126H78.8752ZM93.1491 18.7126V32.7512H95.599V18.7126H93.1491ZM93.1216 15.7397C93.4702 16.07 93.8833 16.2352 94.3604 16.2352C94.8557 16.2352 95.2688 16.07 95.599 15.7397C95.9294 15.391 96.0945 14.9781 96.0945 14.501C96.0945 14.0055 95.9294 13.5926 95.599 13.2623C95.2688 12.9136 94.8557 12.7393 94.3604 12.7393C93.8833 12.7393 93.4702 12.9136 93.1216 13.2623C92.7914 13.5926 92.6261 14.0055 92.6261 14.501C92.6261 14.9781 92.7914 15.391 93.1216 15.7397Z" fill="white" style="fill:white;fill-opacity:1;"/>
</mask>
<g mask="url(#mask0_3_26)">
<path d="M174.9 -105.815H-23.9038V57.9235H174.9V-105.815Z" fill="white" style="fill:white;fill-opacity:1;"/>
</g>
</g>
<defs>
<clipPath id="clip0_3_26">
<rect width="82.189" height="30.343" fill="white" style="fill:white;fill-opacity:1;" transform="translate(13.9055 3)"/>
</clipPath>
</defs>
</svg>
