<svg width="133" height="36" viewBox="0 0 133 36" fill="none" xmlns="http://www.w3.org/2000/svg">
<g clip-path="url(#clip0_3_22)">
<path d="M96.5981 25.8996C95.569 25.8996 94.645 25.7065 93.8263 25.3202C93.0283 24.9336 92.3879 24.4148 91.905 23.764C91.4425 23.0931 91.2115 22.3202 91.2119 21.4452C91.2119 20.3065 91.5898 19.3811 92.3456 18.669C93.1015 17.9569 94.1829 17.4688 95.59 17.2046L99.2756 16.4727C100.01 16.3302 100.514 16.1065 100.788 15.8015C101.06 15.4965 101.197 15.049 101.197 14.459L101.574 18.0283L96.2831 19.1271C95.5694 19.2688 95.0129 19.5229 94.6138 19.8896C94.2358 20.2563 94.0469 20.7646 94.0469 21.4146C94.0469 22.0858 94.3094 22.625 94.8344 23.0321C95.3802 23.4383 96.115 23.6417 97.0387 23.6421C97.795 23.6421 98.4881 23.4794 99.1181 23.154C99.7685 22.829 100.273 22.3815 100.63 21.8115C101.008 21.2215 101.197 20.5502 101.197 19.7977V14.459C101.197 13.7265 100.924 13.1569 100.378 12.7502C99.8525 12.3231 99.1281 12.1096 98.2044 12.1096C97.0285 12.1096 96.1256 12.3944 95.4956 12.964C94.8656 13.5336 94.4981 14.3369 94.3931 15.374L91.6213 15.0083C91.7263 13.93 92.0623 13.0046 92.6294 12.2321C93.1965 11.4388 93.9523 10.8283 94.8969 10.4008C95.8419 9.97418 96.9654 9.76085 98.2675 9.76085C100.115 9.76085 101.532 10.2183 102.519 11.1333C103.506 12.0483 104 13.2281 104 14.6727V25.4415H101.26V23.459C100.987 24.1298 100.43 24.7094 99.5906 25.1977C98.771 25.6656 97.7735 25.8996 96.5981 25.8996ZM68.8794 25.4421V10.2183H71.6194V11.9271C71.8294 11.3371 72.2915 10.8286 73.0056 10.4015C73.7198 9.97439 74.549 9.76085 75.4931 9.76085C76.4181 9.76085 77.2688 9.95397 78.045 10.3402C78.8221 10.7269 79.326 11.3067 79.5569 12.0796C79.8298 11.3671 80.334 10.8077 81.0694 10.4015C81.8248 9.97439 82.6644 9.76085 83.5881 9.76085C85.1844 9.76085 86.4025 10.2083 87.2425 11.1033C88.0825 11.9979 88.5025 13.2996 88.5025 15.0083V25.4421H85.6988V15.374C85.6988 14.3573 85.4679 13.5948 85.0063 13.0865C84.5646 12.5573 83.9135 12.2927 83.0531 12.2927C82.1081 12.2927 81.3731 12.6181 80.8481 13.269C80.344 13.9002 80.0919 14.8256 80.0919 16.0452V25.4421H77.2894V15.374C77.2894 14.3573 77.0581 13.5948 76.5956 13.0865C76.1552 12.5573 75.5044 12.2927 74.6431 12.2927C73.6981 12.2927 72.9631 12.6181 72.4381 13.269C71.934 13.9002 71.6819 14.8256 71.6819 16.0452V25.4421H68.8794ZM58.16 30.9333C56.2071 30.9333 54.6217 30.4961 53.4038 29.6215C52.1858 28.7469 51.4088 27.5267 51.0725 25.9608L53.8131 25.3808C54.0444 26.3775 54.5379 27.1504 55.2937 27.6996C56.0496 28.2692 57.005 28.554 58.16 28.554C59.5454 28.554 60.5848 28.2081 61.2781 27.5165C61.9919 26.8456 62.3488 25.839 62.3488 24.4965V22.0858C62.0342 22.8379 61.4462 23.4483 60.585 23.9171C59.745 24.3846 58.8002 24.6183 57.7506 24.6183C56.3644 24.6183 55.1465 24.3133 54.0969 23.7033C53.0469 23.0721 52.2279 22.1975 51.64 21.0796C51.0521 19.9608 50.7581 18.6692 50.7581 17.2046C50.7581 15.72 51.0519 14.4183 51.6394 13.2996C52.2277 12.1808 53.0363 11.3165 54.065 10.7065C55.115 10.0761 56.3435 9.76085 57.7506 9.76085C58.8006 9.76085 59.756 9.9946 60.6169 10.4621C61.4981 10.9096 62.0965 11.469 62.4119 12.1402V10.2183H65.1525V24.4958C65.1525 25.8375 64.8796 26.9867 64.3338 27.9433C63.7879 28.9196 62.99 29.6619 61.94 30.1702C60.9108 30.6786 59.6508 30.9333 58.16 30.9333ZM58.0969 22.2077C59.4406 22.2077 60.5115 21.75 61.3094 20.8346C62.1281 19.9196 62.5377 18.7094 62.5381 17.204C62.5381 15.679 62.1285 14.4588 61.3094 13.5433C60.4902 12.6279 59.4194 12.1702 58.0969 12.1702C56.7531 12.1702 55.6717 12.6279 54.8525 13.5433C54.0546 14.4588 53.6556 15.679 53.6556 17.204C53.6556 18.709 54.065 19.9194 54.8838 20.8352C55.7029 21.7498 56.7744 22.2073 58.0969 22.2077ZM45.1006 25.4421V10.2183H47.9044V25.4421H45.1006ZM45.0694 8.26585V3.93335H47.9356V8.26585H45.0694ZM29 25.4421V3.93335H31.9606V25.4421H29ZM29.5988 16.3502V13.7571H41.6619V16.3508L29.5988 16.3502ZM29.5988 6.5571V3.93335H42.8275V6.5571H29.5988Z" fill="white" style="fill:white;fill-opacity:1;"/>
</g>
<defs>
<clipPath id="clip0_3_22">
<rect width="75" height="27.5" fill="white" style="fill:white;fill-opacity:1;" transform="translate(29 3.93335)"/>
</clipPath>
</defs>
</svg>
