<svg width="117" height="36" viewBox="0 0 117 36" fill="none" xmlns="http://www.w3.org/2000/svg">
<path d="M19.4892 6.67654H26.1332L35.5165 29.1377H28.4942L22.5615 14.2237L18.6417 24.011H23.3031L25.1646 29.1377H10L19.4892 6.67654ZM43.3409 11.3371C44.022 11.3371 44.7636 11.3973 45.5052 11.5777V6.01503H51.3773V28.1454C50.0303 28.7468 47.1245 29.4834 44.2187 29.4834C38.952 29.4834 34.4268 26.5067 34.4268 20.5682C34.4268 14.6296 38.7855 11.3522 43.3409 11.3522V11.3371ZM44.0825 24.6725C44.6274 24.6725 45.0663 24.5673 45.5052 24.432V16.2834C45.0663 16.118 44.6274 16.0429 44.0523 16.0429C42.1302 16.0429 40.3443 17.4561 40.3443 20.4329C40.3443 23.4096 42.1605 24.6575 44.0825 24.6575V24.6725ZM61.8351 11.3371C66.7235 11.3371 70.8854 14.6146 70.8854 20.3877C70.8854 26.1609 66.7386 29.4383 61.8351 29.4383C56.9316 29.4383 52.7545 26.1609 52.7545 20.3877C52.7545 14.6146 56.871 11.3371 61.8351 11.3371ZM61.8351 24.5823C63.515 24.5823 65.0739 23.2442 65.0739 20.3877C65.0739 17.5312 63.515 16.1932 61.8351 16.1932C60.1552 16.1932 58.6266 17.5312 58.6266 20.3877C58.6266 23.2442 60.0795 24.5823 61.8351 24.5823ZM72.2929 6.01503H78.1953V11.5777C78.9066 11.4424 79.6482 11.3371 80.3898 11.3371C84.9755 11.3371 89.2283 14.3139 89.2283 20.1472C89.2283 26.3112 84.7031 29.4383 79.3455 29.4383C77.0451 29.4383 74.1091 28.9723 72.2929 28.1304V6V6.01503ZM79.4817 24.6424C81.5097 24.6424 83.3561 23.1991 83.3561 20.2224C83.3561 17.441 81.54 16.1331 79.5725 16.1331C79.0277 16.1331 78.5888 16.1932 78.1953 16.3736V24.4169C78.5283 24.5522 78.9672 24.6575 79.4817 24.6575V24.6424ZM99.2472 11.3371C103.666 11.3371 107.722 14.1485 107.722 19.8164C107.722 20.5832 107.692 21.3199 107.586 22.0565H96.5835C97.1889 24.0411 98.9445 24.9732 101.139 24.9732C102.925 24.9732 104.574 24.5372 106.436 23.7404V28.2055C104.711 29.0775 102.652 29.4383 100.534 29.4383C94.9339 29.4383 90.5752 26.0857 90.5752 20.3877C90.5752 14.6898 94.5253 11.3371 99.2472 11.3371ZM102.214 18.4032C101.911 16.4939 100.624 15.7271 99.3077 15.7271C97.991 15.7271 96.9165 16.539 96.4776 18.4032H102.214Z" fill="white" style="fill:white;fill-opacity:1;"/>
</svg>
