<svg width="106" height="36" viewBox="0 0 106 36" fill="none" xmlns="http://www.w3.org/2000/svg">
<g clip-path="url(#clip0_3_24)">
<path d="M43.4102 0H44.9824V1.55859H46.4316V0H48.0039V4.7168H46.4316V3.14453H44.9961V4.7168H43.4102M50.082 1.57227H48.6943V0H53.0488V1.57227H51.6543V4.7168H50.082M53.7393 0H55.3867L56.3984 1.66113L57.4102 0H59.0576V4.7168H57.4854V2.37891L56.3848 4.07422L55.2842 2.37891V4.7168H53.7393M59.8369 0H61.4092V3.1582H63.6377V4.7168H59.8369" fill="white" style="fill:white;fill-opacity:1;"/>
<path d="M43.3555 32.1973L41.0996 6.87695H65.9004L63.6445 32.1836L53.4795 35" fill="#E5E5E5" style="fill:#E5E5E5;fill:color(display-p3 0.8990 0.8990 0.8990);fill-opacity:1;"/>
<path d="M53.5 32.8467V8.95508H63.6377L61.7031 30.5566" fill="white" style="fill:white;fill-opacity:1;"/>
<path d="M45.707 12.0518H53.5V15.1553H49.1113L49.3984 18.334H53.5V21.4307H46.5547M46.6914 22.9893H49.8086L50.0273 25.4707L53.5 26.4004V29.6406L47.1289 27.8633" fill="black" style="fill:black;fill-opacity:1;"/>
<path d="M61.2656 12.0518H53.4863V15.1553H60.9785M60.6982 18.334H53.4863V21.4375H57.3145L56.9521 25.4707L53.4863 26.4004V29.627L59.8437 27.8633" fill="#272727" style="fill:#272727;fill:color(display-p3 0.1518 0.1518 0.1518);fill-opacity:1;"/>
</g>
<defs>
<clipPath id="clip0_3_24">
<rect width="106" height="35" fill="white" style="fill:white;fill-opacity:1;" transform="translate(0 0.299927)"/>
</clipPath>
</defs>
</svg>
