<svg width="133" height="36" viewBox="0 0 133 36" fill="none" xmlns="http://www.w3.org/2000/svg">
<g clip-path="url(#clip0_3_27)">
<path d="M41.5369 26.3403V8.50916H52.3814V11.9603H45.6454V16.7536H52.3814V20.1569H45.6454V26.3403H41.5369Z" fill="white" style="fill:white;fill-opacity:1;"/>
<path d="M55.1045 26.3402V14.0694H58.9741V16.6098C59.1652 15.747 59.5952 15.028 60.2162 14.5487C60.8373 14.0694 61.5539 13.8297 62.3183 13.8297C62.7004 13.8297 63.0826 13.8776 63.3215 13.9256V17.5685C62.8438 17.5206 62.4616 17.4726 62.1749 17.4726C60.0251 17.4726 58.9741 18.8627 58.9741 21.5469V26.2923H55.1045V26.3402Z" fill="white" style="fill:white;fill-opacity:1;"/>
<path d="M70.0099 26.628C68.2423 26.628 66.8091 26.0048 65.8058 24.8065C64.7548 23.6082 64.2771 22.0264 64.2771 20.157C64.2771 18.2876 64.8026 16.7538 65.8536 15.5075C66.9046 14.3092 68.3378 13.686 70.0577 13.686C70.9176 13.686 71.682 13.8778 72.3508 14.2612C73.0196 14.6447 73.5451 15.124 73.8795 15.7951V14.0216H77.7492V26.2924H73.8795V24.5668C73.5451 25.19 73.0196 25.6693 72.303 26.0528C71.6342 26.4842 70.8698 26.628 70.0099 26.628ZM71.1087 23.4165C72.0164 23.4165 72.7807 23.1289 73.2585 22.5057C73.7362 21.8826 74.0228 21.1157 74.0228 20.2049C74.0228 19.2942 73.784 18.5273 73.2585 17.9041C72.733 17.281 72.0164 16.9934 71.1087 16.9934C70.2488 16.9934 69.5322 17.281 69.0067 17.9041C68.4811 18.4793 68.1945 19.2942 68.1945 20.2049C68.1945 21.1636 68.4811 21.9305 69.0067 22.5537C69.5322 23.1289 70.2488 23.4165 71.1087 23.4165Z" fill="white" style="fill:white;fill-opacity:1;"/>
<path d="M80.95 26.3403V14.0694H84.8196V15.8429C85.1062 15.2198 85.5362 14.6925 86.1572 14.3091C86.7783 13.9256 87.4949 13.7339 88.307 13.7339C90.218 13.7339 91.5078 14.5008 92.1289 15.9867C92.4633 15.3157 92.9888 14.7405 93.6576 14.357C94.3742 13.9256 95.1386 13.7339 95.9985 13.7339C98.9127 13.7339 100.346 15.4115 100.346 18.7189V26.3403H96.4285V19.4379C96.4285 17.8082 95.8074 17.0413 94.6131 17.0413C93.2277 17.0413 92.5589 18.0479 92.5589 20.0611V26.3882H88.737V19.39C88.737 17.8082 88.1159 16.9933 86.9216 16.9933C86.2528 16.9933 85.7273 17.233 85.3929 17.6644C85.0585 18.0958 84.8674 18.9107 84.8674 20.0131V26.3403H80.95Z" fill="white" style="fill:white;fill-opacity:1;"/>
<path d="M115.538 19.5338C115.538 20.0611 115.49 20.5883 115.442 21.2594H106.413C106.461 22.0742 106.7 22.6974 107.225 23.1288C107.751 23.5602 108.419 23.7998 109.279 23.7998C110.474 23.7998 111.238 23.4164 111.572 22.6494H115.394C115.203 23.8478 114.534 24.8544 113.436 25.5734C112.289 26.3403 110.951 26.7238 109.327 26.7238C107.225 26.7238 105.601 26.1486 104.406 24.9982C103.212 23.8478 102.591 22.266 102.591 20.2049C102.591 18.1917 103.212 16.6099 104.406 15.4595C105.601 14.3091 107.225 13.7339 109.184 13.7339C111.095 13.7339 112.623 14.2612 113.818 15.3636C114.917 16.4181 115.538 17.8082 115.538 19.5338ZM106.365 18.8148H111.668C111.668 17.9999 111.429 17.3768 110.999 16.9454C110.569 16.514 109.948 16.2743 109.088 16.2743C108.276 16.2743 107.607 16.514 107.13 16.9933C106.652 17.4727 106.413 18.0958 106.365 18.8148Z" fill="white" style="fill:white;fill-opacity:1;"/>
<path d="M117.735 26.3402V14.0694H121.605V16.6098C121.796 15.747 122.226 15.028 122.847 14.5487C123.468 14.0694 124.185 13.8297 124.949 13.8297C125.331 13.8297 125.713 13.8776 125.952 13.9256V17.5685C125.474 17.5206 125.092 17.4726 124.806 17.4726C122.656 17.4726 121.605 18.8627 121.605 21.5469V26.2923H117.735V26.3402Z" fill="white" style="fill:white;fill-opacity:1;"/>
<path d="M25.7717 4.62671V13.5423H16.8858L8 4.62671H25.7717ZM8 13.5423H16.8858L25.7717 22.4578H16.8858V31.3734L8 22.4578V13.5423Z" fill="white" style="fill:white;fill-opacity:1;"/>
</g>
<defs>
<clipPath id="clip0_3_27">
<rect width="118" height="26.7467" fill="white" style="fill:white;fill-opacity:1;" transform="translate(8 4.62671)"/>
</clipPath>
</defs>
</svg>
