<svg width="101" height="41" viewBox="0 0 101 41" fill="none" xmlns="http://www.w3.org/2000/svg">
<path d="M1.24112 26.7762V12.8653H7.25203V14.9433H4.31527V18.4468H6.8742V20.5936H4.31527V26.7762H1.24112ZM7.51473 26.7762L10.1424 12.8653H13.6459L16.2391 26.7762H13.4054L12.9417 23.8395H10.898L10.4171 26.7762H7.51473ZM11.1728 22.0018H12.6498L11.9113 16.5749L11.1728 22.0018ZM17.6952 26.7762V12.8653H20.7693V18.4983H22.9161V12.8653H26.0074V26.7762H22.9161V20.6966H20.7693V26.7762H17.6952ZM28.1258 26.7762V12.8653H34.3772V14.9605H31.2V18.4125H33.6215V20.542H31.2V24.6982H34.4115V26.7762H28.1258ZM35.8072 26.7762V12.8653H42.0585V14.9605H38.8813V18.4125H41.3028V20.542H38.8813V24.6982H42.0929V26.7762H35.8072ZM43.437 26.7762L43.6774 12.8653H46.9748L48.5033 20.9542L50.152 12.8653H53.3292L53.5697 26.7762H51.3886L51.1309 17.5194L49.5166 26.7762H47.5759L45.8585 17.4507L45.6524 26.7762H43.437ZM55.3403 26.7762V24.1314H57.9851V26.7762H55.3403ZM60.8899 26.7762L59.2069 12.8653H61.8173L62.6417 20.9714L63.6893 12.8824H65.733L66.8321 20.9199L67.6737 12.8653H70.2498L68.5839 26.7762H65.9047L64.7197 18.3781L63.6034 26.7762H60.8899ZM75.6993 26.9823C72.5736 26.9823 71.526 25.2649 71.526 22.3968V17.2275C71.526 14.3594 72.5736 12.6764 75.6993 12.6764C78.8421 12.6764 79.9069 14.3594 79.9069 17.2275V22.3968C79.9069 25.2649 78.8421 26.9823 75.6993 26.9823ZM75.6993 24.8012C76.661 24.8012 76.7641 23.9597 76.7641 23.1697V16.4718C76.7641 15.6475 76.661 14.8403 75.6993 14.8403C74.7891 14.8403 74.6689 15.6475 74.6689 16.4718V23.1697C74.6689 23.9597 74.7376 24.8012 75.6993 24.8012ZM81.7778 26.7762V12.8653H85.6076C88.407 12.8653 90.2274 13.6209 90.2274 16.5405C90.2274 18.2579 89.9011 19.3914 88.5272 20.044L90.4335 26.7762H87.2563L85.7279 20.542H84.852V26.7762H81.7778ZM84.852 18.7731H85.7107C86.9987 18.7731 87.3766 18.0518 87.3766 16.8153C87.3766 15.6303 87.0159 14.9261 85.8481 14.9261H84.852V18.7731ZM92.0755 26.7762V12.8653H95.1497V18.5499L97.4853 12.8653H100.491L97.9147 19.151L100.611 26.7762H97.4853L95.476 20.6279L95.1497 21.1775V26.7762H92.0755Z" fill="#070707" style="fill:#070707;fill:color(display-p3 0.0275 0.0275 0.0275);fill-opacity:1;"/>
</svg>
