<svg width="55" height="55" viewBox="0 0 55 55" fill="none" xmlns="http://www.w3.org/2000/svg">
<g clip-path="url(#clip0_346_2413)">
<path d="M39.8408 16.9274L37.5923 42.1169L27.4849 44.919L17.4054 42.1209L15.1592 16.9274H39.8408Z" fill="#264DE4" style="fill:#264DE4;fill:color(display-p3 0.1490 0.3020 0.8941);fill-opacity:1;"/>
<path d="M35.6672 40.513L37.5888 18.9873H27.5V42.7772L35.6672 40.513Z" fill="#2965F1" style="fill:#2965F1;fill:color(display-p3 0.1608 0.3961 0.9451);fill-opacity:1;"/>
<path d="M20.3081 28.3313L20.585 31.4211H27.4996V28.3313H20.3081Z" fill="#EBEBEB" style="fill:#EBEBEB;fill:color(display-p3 0.9216 0.9216 0.9216);fill-opacity:1;"/>
<path d="M27.4999 22.0773H27.4892H19.752L20.0328 25.1672H27.4999V22.0773Z" fill="#EBEBEB" style="fill:#EBEBEB;fill:color(display-p3 0.9216 0.9216 0.9216);fill-opacity:1;"/>
<path d="M27.5001 39.5709V36.3561L27.4866 36.3597L24.0454 35.4305L23.8254 32.9662H22.1532H20.7236L21.1565 37.8177L27.4859 39.5748L27.5001 39.5709Z" fill="#EBEBEB" style="fill:#EBEBEB;fill:color(display-p3 0.9216 0.9216 0.9216);fill-opacity:1;"/>
<path d="M20.9678 10.0809H24.7102V11.6459H22.5328V13.2109H24.7102V14.7759H20.9678V10.0809Z" fill="black" style="fill:black;fill-opacity:1;"/>
<path d="M25.459 10.0809H29.2014V11.4418H27.024V11.714H29.2014V14.844H25.459V13.4151H27.6364V13.1429H25.459V10.0809Z" fill="black" style="fill:black;fill-opacity:1;"/>
<path d="M29.9497 10.0809H33.6921V11.4418H31.5147V11.714H33.6921V14.844H29.9497V13.4151H32.1271V13.1429H29.9497V10.0809Z" fill="black" style="fill:black;fill-opacity:1;"/>
<path d="M31.2941 31.4211L30.9354 35.4285L27.4893 36.3586V39.5733L33.8237 37.8177L33.8702 37.2956L34.5962 29.161L34.6716 28.3313L35.2295 22.0773H27.4893V25.1672H31.8432L31.5621 28.3313H27.4893V31.4211H31.2941Z" fill="white" style="fill:white;fill-opacity:1;"/>
</g>
<defs>
<clipPath id="clip0_346_2413">
<rect width="24.6816" height="34.8382" fill="white" style="fill:white;fill-opacity:1;" transform="translate(15.1592 10.0809)"/>
</clipPath>
</defs>
</svg>
