<svg width="55" height="55" viewBox="0 0 55 55" fill="none" xmlns="http://www.w3.org/2000/svg">
<mask id="mask0_346_2467" style="mask-type:luminance" maskUnits="userSpaceOnUse" x="1" y="1" width="53" height="53">
<path d="M53.5294 1.45068H1.48828V53.4918H53.5294V1.45068Z" fill="white" style="fill:white;fill-opacity:1;"/>
</mask>
<g mask="url(#mask0_346_2467)">
<mask id="mask1_346_2467" style="mask-type:luminance" maskUnits="userSpaceOnUse" x="10" y="10" width="36" height="35">
<path d="M45.0059 10.1139H10.0127V44.7948H45.0059V10.1139Z" fill="white" style="fill:white;fill-opacity:1;"/>
</mask>
<g mask="url(#mask1_346_2467)">
<path d="M23.4342 22.7377V19.443C23.4342 19.1655 23.5383 18.9573 23.781 18.8188L30.4052 15.0039C31.3069 14.4837 32.3821 14.241 33.4917 14.241C37.6533 14.241 40.2893 17.4664 40.2893 20.8997C40.2893 21.1424 40.2893 21.4199 40.2545 21.6974L33.3876 17.6743C32.9715 17.4317 32.5552 17.4317 32.1391 17.6743L23.4342 22.7377ZM38.9019 35.5697V27.697C38.9019 27.2113 38.6936 26.8646 38.2776 26.6218L29.5727 21.5585L32.4165 19.9283C32.6593 19.7898 32.8674 19.7898 33.1101 19.9283L39.7343 23.7432C41.6419 24.8532 42.9249 27.2113 42.9249 29.5001C42.9249 32.1358 41.3644 34.5636 38.9019 35.5694V35.5697ZM21.388 28.6336L18.5442 26.969C18.3015 26.8304 18.1974 26.6222 18.1974 26.3447V18.715C18.1974 15.0042 21.0412 12.1949 24.8909 12.1949C26.3477 12.1949 27.7 12.6805 28.8447 13.5475L22.0126 17.5013C21.5965 17.7439 21.3884 18.0907 21.3884 18.5764V28.6339L21.388 28.6336ZM27.5093 32.1709L23.4342 29.8821V25.0269L27.5093 22.7381L31.5841 25.0269V29.8821L27.5093 32.1709ZM30.1277 42.7141C28.671 42.7141 27.3187 42.2285 26.1739 41.3615L33.006 37.4077C33.4221 37.1651 33.6303 36.8183 33.6303 36.3326V26.2751L36.5089 27.9397C36.7516 28.0783 36.8557 28.2864 36.8557 28.564V36.1937C36.8557 39.9045 33.977 42.7138 30.1277 42.7138V42.7141ZM21.9082 34.9803L15.284 31.1655C13.3764 30.0555 12.0933 27.6974 12.0933 25.4085C12.0933 22.7381 13.6887 20.3451 16.1509 19.3393V27.2465C16.1509 27.7321 16.3591 28.0789 16.7751 28.3216L25.4456 33.3502L22.6017 34.9803C22.3591 35.1188 22.1509 35.1188 21.9082 34.9803ZM21.5269 40.6679C17.608 40.6679 14.7294 37.72 14.7294 34.0785C14.7294 33.8011 14.7641 33.5236 14.7986 33.2461L21.6307 37.1998C22.0468 37.4426 22.4632 37.4426 22.8792 37.1998L31.5841 32.1713V35.466C31.5841 35.7435 31.48 35.9517 31.2373 36.0902L24.6131 39.9051C23.7114 40.4253 22.6362 40.6679 21.5266 40.6679H21.5269ZM30.1277 44.7948C34.3241 44.7948 37.8267 41.8123 38.6247 37.8586C42.5089 36.8528 45.0059 33.2113 45.0059 29.5005C45.0059 27.0727 43.9656 24.7146 42.0928 23.0152C42.2662 22.2868 42.3703 21.5585 42.3703 20.8305C42.3703 15.8712 38.3472 12.16 33.6999 12.16C32.7637 12.16 31.8619 12.2986 30.9602 12.6109C29.3993 11.0849 27.2491 10.1139 24.8909 10.1139C20.6945 10.1139 17.1919 13.0963 16.3939 17.05C12.5097 18.0559 10.0127 21.6974 10.0127 25.4081C10.0127 27.8359 11.053 30.194 12.9258 31.8935C12.7524 32.6218 12.6484 33.3502 12.6484 34.0782C12.6484 39.0375 16.6714 42.7486 21.3187 42.7486C22.2549 42.7486 23.1567 42.61 24.0584 42.2977C25.619 43.8237 27.7692 44.7948 30.1277 44.7948Z" fill="black" style="fill:black;fill-opacity:1;"/>
</g>
</g>
</svg>
