<svg width="55" height="55" viewBox="0 0 55 55" fill="none" xmlns="http://www.w3.org/2000/svg">
<path d="M17.4102 10H18.9824V11.5586H20.4316V10H22.0039V14.7168H20.4316V13.1445H18.9961V14.7168H17.4102M24.082 11.5723H22.6943V10H27.0488V11.5723H25.6543V14.7168H24.082M27.7393 10H29.3867L30.3984 11.6611L31.4102 10H33.0576V14.7168H31.4853V12.3789L30.3848 14.0742L29.2842 12.3789V14.7168H27.7393M33.8369 10H35.4092V13.1582H37.6377V14.7168H33.8369" fill="black" style="fill:black;fill-opacity:1;"/>
<path d="M17.3555 42.1973L15.0996 16.877H39.9004L37.6445 42.1836L27.4795 45" fill="#E44D26" style="fill:#E44D26;fill:color(display-p3 0.8941 0.3020 0.1490);fill-opacity:1;"/>
<path d="M27.5 42.8467V18.9551H37.6377L35.7031 40.5566" fill="#F16529" style="fill:#F16529;fill:color(display-p3 0.9451 0.3961 0.1608);fill-opacity:1;"/>
<path d="M19.707 22.0518H27.5V25.1553H23.1113L23.3984 28.334H27.5V31.4307H20.5547M20.6914 32.9893H23.8086L24.0273 35.4707L27.5 36.4004V39.6406L21.1289 37.8633" fill="#EBEBEB" style="fill:#EBEBEB;fill:color(display-p3 0.9216 0.9216 0.9216);fill-opacity:1;"/>
<path d="M35.2656 22.0518H27.4863V25.1553H34.9785M34.6982 28.334H27.4863V31.4375H31.3145L30.9521 35.4707L27.4863 36.4004V39.627L33.8437 37.8633" fill="white" style="fill:white;fill-opacity:1;"/>
</svg>
