<svg width="55" height="55" viewBox="0 0 55 55" fill="none" xmlns="http://www.w3.org/2000/svg">
<g clip-path="url(#clip0_346_2429)">
<path fill-rule="evenodd" clip-rule="evenodd" d="M27.4854 15.3057C22.0322 15.3057 18.6351 18.0122 17.2644 23.4253C19.3205 20.7188 21.7044 19.7075 24.4459 20.3619C25.9954 20.7485 27.1278 21.8787 28.3495 23.0982C30.346 25.1504 32.6703 27.5001 37.7361 27.5001C43.1892 27.5001 46.6161 24.7935 47.9868 19.3804C45.9307 22.0869 43.5468 23.0982 40.8352 22.4141C39.2856 22.0275 38.1533 20.8972 36.9315 19.6778C34.9052 17.6553 32.5809 15.3057 27.4854 15.3057ZM17.2644 27.5001C11.7815 27.5001 8.38441 30.2066 7.01367 35.6197C9.06978 32.9132 11.4537 31.9019 14.1951 32.5563C15.7447 32.9429 16.877 34.0731 18.0988 35.2926C20.0953 37.3448 22.4196 39.6944 27.4854 39.6944C32.9385 39.6944 36.3654 36.9879 37.7361 31.5748C35.68 34.2813 33.2961 35.2926 30.5546 34.6085C29.0051 34.2218 27.8727 33.0916 26.651 31.8722C24.6545 29.8497 22.3302 27.5001 17.2644 27.5001Z" fill="#38BDF8" style="fill:#38BDF8;fill:color(display-p3 0.2196 0.7412 0.9725);fill-opacity:1;"/>
</g>
<defs>
<clipPath id="clip0_346_2429">
<rect width="40.9732" height="24.3888" fill="white" style="fill:white;fill-opacity:1;" transform="translate(7.01367 15.3057)"/>
</clipPath>
</defs>
</svg>
