<svg width="55" height="55" viewBox="0 0 55 55" fill="none" xmlns="http://www.w3.org/2000/svg">
<g clip-path="url(#clip0_346_2449)">
<path d="M39.9945 46.3434H15.006C11.2174 46.3434 8.1543 43.2833 8.1543 39.4985V15.5013C8.1543 11.7165 11.2174 8.65649 15.006 8.65649H39.9945C43.7831 8.65649 46.8462 11.7165 46.8462 15.5013V39.4985C46.8462 43.2833 43.7831 46.3434 39.9945 46.3434Z" fill="#26C9FF" style="fill:#26C9FF;fill:color(display-p3 0.1490 0.7882 1.0000);fill-opacity:1;"/>
<path d="M39.382 44.7329H15.6187C12.3944 44.7329 9.7666 42.1077 9.7666 38.8866V16.1134C9.7666 12.8923 12.3944 10.2671 15.6187 10.2671H39.3659C42.6063 10.2671 45.218 12.8923 45.218 16.1134V38.8705C45.2341 42.1077 42.6063 44.7329 39.382 44.7329Z" fill="#061E26" style="fill:#061E26;fill:color(display-p3 0.0235 0.1176 0.1490);fill-opacity:1;"/>
<path fill-rule="evenodd" clip-rule="evenodd" d="M17.666 18.0944C17.666 17.9977 17.6983 17.9172 17.8272 17.9172C18.8429 17.8689 20.2938 17.8367 21.8576 17.8367C26.2105 17.8367 28.1128 20.2203 28.1128 23.2803C28.1128 27.2745 25.1787 28.9817 21.6319 28.9817C21.0354 28.9817 20.8259 28.9495 20.4067 28.9495V35.0696C20.4067 35.1984 20.3583 35.2467 20.2294 35.2467H17.8434C17.7144 35.2467 17.666 35.1984 17.666 35.0696V18.0944ZM20.4067 26.437C20.7614 26.4692 21.0516 26.4692 21.6803 26.4692C23.5182 26.4692 25.2754 25.825 25.2754 23.3286C25.2754 21.3316 24.0179 20.3169 21.906 20.3169C21.2773 20.3169 20.6808 20.3491 20.4067 20.3652V26.437ZM34.4647 24.5688C33.2234 24.5688 32.8042 25.1969 32.8042 25.7123C32.8042 26.276 33.0944 26.6786 34.7549 27.5322C37.2215 28.724 37.9954 29.8675 37.9954 31.5586C37.9954 34.071 36.0769 35.4239 33.4813 35.4239C32.111 35.4239 30.8857 35.134 30.2086 34.7475C30.1119 34.6991 30.0797 34.6186 30.0797 34.4898V32.1706C30.0797 32.0095 30.1603 31.9612 30.257 32.0417C31.2404 32.6859 32.4495 32.9758 33.4813 32.9758C34.7227 32.9758 35.2386 32.4605 35.2386 31.7518C35.2386 31.1881 34.8839 30.6889 33.2879 29.8514C31.047 28.7884 30.128 27.6932 30.128 25.8894C30.128 23.8601 31.7079 22.1852 34.4647 22.1852C35.819 22.1852 36.8185 22.3945 37.3344 22.62C37.4634 22.7005 37.4956 22.8294 37.4956 22.926V25.0841C37.4956 25.213 37.415 25.2935 37.2699 25.2452C36.5605 24.8265 35.4804 24.5688 34.4647 24.5688Z" fill="#D9F5FF" style="fill:#D9F5FF;fill:color(display-p3 0.8510 0.9608 1.0000);fill-opacity:1;"/>
</g>
<defs>
<clipPath id="clip0_346_2449">
<rect width="38.6919" height="37.6869" fill="white" style="fill:white;fill-opacity:1;" transform="translate(8.1543 8.65649)"/>
</clipPath>
</defs>
</svg>
