<svg width="55" height="55" viewBox="0 0 55 55" fill="none" xmlns="http://www.w3.org/2000/svg">
<g clip-path="url(#clip0_343_2315)">
<path d="M27.9277 27.9293C27.9277 24.4439 30.7532 21.6184 34.2386 21.6184C37.724 21.6184 40.5495 24.4439 40.5495 27.9293C40.5495 31.4147 37.724 34.2402 34.2386 34.2402C30.7532 34.2402 27.9277 31.4147 27.9277 27.9293Z" fill="#1ABCFE" style="fill:#1ABCFE;fill:color(display-p3 0.1020 0.7373 0.9961);fill-opacity:1;"/>
<path d="M15.3057 40.551C15.3057 37.0657 18.1311 34.2401 21.6166 34.2401H27.9274V40.551C27.9274 44.0364 25.102 46.8619 21.6166 46.8619C18.1311 46.8619 15.3057 44.0364 15.3057 40.551Z" fill="#0ACF83" style="fill:#0ACF83;fill:color(display-p3 0.0392 0.8118 0.5137);fill-opacity:1;"/>
<path d="M27.9277 8.99658V21.6183H34.2386C37.7241 21.6183 40.5495 18.7929 40.5495 15.3075C40.5495 11.8221 37.7241 8.99658 34.2386 8.99658H27.9277Z" fill="#FF7262" style="fill:#FF7262;fill:color(display-p3 1.0000 0.4471 0.3843);fill-opacity:1;"/>
<path d="M15.3057 15.3075C15.3057 18.7929 18.1311 21.6183 21.6166 21.6183H27.9274V8.99658H21.6166C18.1311 8.99658 15.3057 11.8221 15.3057 15.3075Z" fill="#F24E1E" style="fill:#F24E1E;fill:color(display-p3 0.9490 0.3059 0.1176);fill-opacity:1;"/>
<path d="M15.3057 27.9293C15.3057 31.4147 18.1311 34.2402 21.6166 34.2402H27.9274V21.6184H21.6166C18.1311 21.6184 15.3057 24.4439 15.3057 27.9293Z" fill="#A259FF" style="fill:#A259FF;fill:color(display-p3 0.6353 0.3490 1.0000);fill-opacity:1;"/>
</g>
<defs>
<clipPath id="clip0_343_2315">
<rect width="25.5032" height="38.2548" fill="white" style="fill:white;fill-opacity:1;" transform="translate(15.1758 8.80176)"/>
</clipPath>
</defs>
</svg>
