<svg width="430" height="430" viewBox="0 0 430 430" fill="none" xmlns="http://www.w3.org/2000/svg">
<path d="M386.008 162.805C396.221 197.571 379.669 243.893 345.808 256.437C345.215 256.656 344.612 256.875 343.998 257.089C295.193 274.182 272.9 212.31 226.016 218.488C179.133 224.666 155.461 270.678 94.9766 263.176C40.6539 256.437 -10.3116 112.444 134.486 83.8152C250.962 60.7788 355.525 59.0828 386.008 162.805Z" fill="#FFF4F7" style="fill:#FFF4F7;fill:color(display-p3 1.0000 0.9569 0.9686);fill-opacity:1;"/>
<g style="mix-blend-mode:multiply" opacity="0.3">
<path d="M124.686 177.691H107.551C106.954 177.691 106.471 178.177 106.471 178.776V182.056C106.471 182.655 106.954 183.141 107.551 183.141H124.686C125.283 183.141 125.767 182.655 125.767 182.056V178.776C125.767 178.177 125.283 177.691 124.686 177.691Z" fill="#FF8BAA" style="fill:#FF8BAA;fill:color(display-p3 1.0000 0.5451 0.6667);fill-opacity:1;"/>
<path d="M142.657 170.576H125.522C124.925 170.576 124.441 171.062 124.441 171.661V174.941C124.441 175.54 124.925 176.026 125.522 176.026H142.657C143.254 176.026 143.737 175.54 143.737 174.941V171.661C143.737 171.062 143.254 170.576 142.657 170.576Z" fill="#FF8BAA" style="fill:#FF8BAA;fill:color(display-p3 1.0000 0.5451 0.6667);fill-opacity:1;"/>
<path d="M219.841 124.855H202.705C202.109 124.855 201.625 125.341 201.625 125.94V129.22C201.625 129.819 202.109 130.305 202.705 130.305H219.841C220.437 130.305 220.921 129.819 220.921 129.22V125.94C220.921 125.341 220.437 124.855 219.841 124.855Z" fill="#FF8BAA" style="fill:#FF8BAA;fill:color(display-p3 1.0000 0.5451 0.6667);fill-opacity:1;"/>
<path d="M230.319 116.553H213.184C212.587 116.553 212.104 117.038 212.104 117.638V120.918C212.104 121.517 212.587 122.002 213.184 122.002H230.319C230.916 122.002 231.399 121.517 231.399 120.918V117.638C231.399 117.038 230.916 116.553 230.319 116.553Z" fill="#FF8BAA" style="fill:#FF8BAA;fill:color(display-p3 1.0000 0.5433 0.6679);fill-opacity:1;"/>
<path d="M273.886 157.08H256.75C256.154 157.08 255.67 157.566 255.67 158.165V161.445C255.67 162.044 256.154 162.53 256.75 162.53H273.886C274.482 162.53 274.966 162.044 274.966 161.445V158.165C274.966 157.566 274.482 157.08 273.886 157.08Z" fill="#FF8BAA" style="fill:#FF8BAA;fill:color(display-p3 1.0000 0.5451 0.6667);fill-opacity:1;"/>
<path d="M381.173 189.318H364.037C363.441 189.318 362.957 189.804 362.957 190.403V193.683C362.957 194.282 363.441 194.768 364.037 194.768H381.173C381.769 194.768 382.253 194.282 382.253 193.683V190.403C382.253 189.804 381.769 189.318 381.173 189.318Z" fill="#FF8BAA" style="fill:#FF8BAA;fill:color(display-p3 1.0000 0.5451 0.6667);fill-opacity:1;"/>
<path d="M263.409 148.777H246.274C245.677 148.777 245.193 149.263 245.193 149.862V153.142C245.193 153.741 245.677 154.227 246.274 154.227H263.409C264.006 154.227 264.489 153.741 264.489 153.142V149.862C264.489 149.263 264.006 148.777 263.409 148.777Z" fill="#FF8BAA" style="fill:#FF8BAA;fill:color(display-p3 1.0000 0.5451 0.6667);fill-opacity:1;"/>
<path d="M192.198 170.576H175.063C174.466 170.576 173.982 171.062 173.982 171.661V174.941C173.982 175.54 174.466 176.026 175.063 176.026H192.198C192.795 176.026 193.278 175.54 193.278 174.941V171.661C193.278 171.062 192.795 170.576 192.198 170.576Z" fill="#FF8BAA" style="fill:#FF8BAA;fill:color(display-p3 1.0000 0.5451 0.6667);fill-opacity:1;"/>
<path d="M142.659 119.217H125.524C124.927 119.217 124.443 119.702 124.443 120.302V123.582C124.443 124.181 124.927 124.666 125.524 124.666H142.659C143.256 124.666 143.739 124.181 143.739 123.582V120.302C143.739 119.702 143.256 119.217 142.659 119.217Z" fill="#FF8BAA" style="fill:#FF8BAA;fill:color(display-p3 1.0000 0.5451 0.6667);fill-opacity:1;"/>
<path d="M119.593 193.705H102.457C101.861 193.705 101.377 194.191 101.377 194.79V198.07C101.377 198.669 101.861 199.155 102.457 199.155H119.593C120.189 199.155 120.673 198.669 120.673 198.07V194.79C120.673 194.191 120.189 193.705 119.593 193.705Z" fill="#FF8BAA" style="fill:#FF8BAA;fill:color(display-p3 1.0000 0.5451 0.6667);fill-opacity:1;"/>
<path d="M88.6044 119.217H71.4688C70.8723 119.217 70.3887 119.702 70.3887 120.302V123.582C70.3887 124.181 70.8723 124.666 71.4688 124.666H88.6044C89.201 124.666 89.6846 124.181 89.6846 123.582V120.302C89.6846 119.702 89.201 119.217 88.6044 119.217Z" fill="#FF8BAA" style="fill:#FF8BAA;fill:color(display-p3 1.0000 0.5451 0.6667);fill-opacity:1;"/>
<path d="M142.657 144.896H125.522C124.925 144.896 124.441 145.382 124.441 145.981V149.261C124.441 149.86 124.925 150.346 125.522 150.346H142.657C143.254 150.346 143.737 149.86 143.737 149.261V145.981C143.737 145.382 143.254 144.896 142.657 144.896Z" fill="#FF8BAA" style="fill:#FF8BAA;fill:color(display-p3 1.0000 0.5451 0.6667);fill-opacity:1;"/>
<path d="M313.767 98.0195H296.631C296.034 98.0195 295.551 98.5052 295.551 99.1044V102.384C295.551 102.984 296.034 103.469 296.631 103.469H313.767C314.363 103.469 314.847 102.984 314.847 102.384V99.1044C314.847 98.5052 314.363 98.0195 313.767 98.0195Z" fill="#FF8BAA" style="fill:#FF8BAA;fill:color(display-p3 1.0000 0.5451 0.6667);fill-opacity:1;"/>
<path d="M304.114 90.9043H286.979C286.382 90.9043 285.898 91.39 285.898 91.9891V95.2691C285.898 95.8683 286.382 96.354 286.979 96.354H304.114C304.711 96.354 305.194 95.8683 305.194 95.2691V91.9891C305.194 91.39 304.711 90.9043 304.114 90.9043Z" fill="#FF8BAA" style="fill:#FF8BAA;fill:color(display-p3 1.0000 0.5451 0.6667);fill-opacity:1;"/>
<path d="M282.11 90.9043H264.975C264.378 90.9043 263.895 91.39 263.895 91.9891V95.2691C263.895 95.8683 264.378 96.354 264.975 96.354H282.11C282.707 96.354 283.19 95.8683 283.19 95.2691V91.9891C283.19 91.39 282.707 90.9043 282.11 90.9043Z" fill="#FF8BAA" style="fill:#FF8BAA;fill:color(display-p3 1.0000 0.5451 0.6667);fill-opacity:1;"/>
<path d="M292.513 83.7891H275.377C274.78 83.7891 274.297 84.2748 274.297 84.8739V88.1539C274.297 88.753 274.78 89.2387 275.377 89.2387H292.513C293.109 89.2387 293.593 88.753 293.593 88.1539V84.8739C293.593 84.2748 293.109 83.7891 292.513 83.7891Z" fill="#FF8BAA" style="fill:#FF8BAA;fill:color(display-p3 1.0000 0.5451 0.6667);fill-opacity:1;"/>
</g>
<path d="M40 240L47.5 248" stroke="#FFD3DE" style="stroke:#FFD3DE;stroke:color(display-p3 1.0000 0.8275 0.8706);stroke-opacity:1;" stroke-width="4" stroke-linecap="round"/>
<path d="M40 248L47.5 240" stroke="#FFD3DE" style="stroke:#FFD3DE;stroke:color(display-p3 1.0000 0.8275 0.8706);stroke-opacity:1;" stroke-width="4" stroke-linecap="round"/>
<path d="M363 76L370.5 84" stroke="#FFD3DE" style="stroke:#FFD3DE;stroke:color(display-p3 1.0000 0.8275 0.8706);stroke-opacity:1;" stroke-width="4" stroke-linecap="round"/>
<path d="M363 84L370.5 76" stroke="#FFD3DE" style="stroke:#FFD3DE;stroke:color(display-p3 1.0000 0.8275 0.8706);stroke-opacity:1;" stroke-width="4" stroke-linecap="round"/>
<path d="M378 324L385.5 332" stroke="#FFD3DE" style="stroke:#FFD3DE;stroke:color(display-p3 1.0000 0.8275 0.8706);stroke-opacity:1;" stroke-width="4" stroke-linecap="round"/>
<path d="M378 332L385.5 324" stroke="#FFD3DE" style="stroke:#FFD3DE;stroke:color(display-p3 1.0000 0.8275 0.8706);stroke-opacity:1;" stroke-width="4" stroke-linecap="round"/>
<ellipse cx="100" cy="347" rx="38" ry="6" fill="#FFF2F5" style="fill:#FFF2F5;fill:color(display-p3 1.0000 0.9475 0.9606);fill-opacity:1;"/>
<ellipse cx="319" cy="353" rx="38" ry="6" fill="#FFF2F5" style="fill:#FFF2F5;fill:color(display-p3 1.0000 0.9475 0.9606);fill-opacity:1;"/>
<path fill-rule="evenodd" clip-rule="evenodd" d="M131.853 192.705L135.155 199.19L150.621 211.436L151.354 227.322L170.964 241.41L168.008 262.476L200.079 274.908L193.336 297.824L100.546 344.877C98.5756 345.877 96.1684 345.089 95.1692 343.119L43.8091 241.837C42.81 239.867 43.5972 237.46 45.5675 236.46L131.853 192.705Z" fill="#FFD3DE" style="fill:#FFD3DE;fill:color(display-p3 1.0000 0.8275 0.8706);fill-opacity:1;"/>
<rect x="88.8809" y="306.043" width="38.7852" height="9.04296" transform="rotate(-26.8896 88.8809 306.043)" fill="#FFC7D5" style="fill:#FFC7D5;fill:color(display-p3 1.0000 0.7804 0.8353);fill-opacity:1;"/>
<rect x="95.1523" y="318.41" width="91.0991" height="9.04296" transform="rotate(-26.8896 95.1523 318.41)" fill="#FF7094" style="fill:#FF7094;fill:color(display-p3 1.0000 0.4392 0.5794);fill-opacity:1;"/>
<path fill-rule="evenodd" clip-rule="evenodd" d="M170.646 241.181L69.4891 292.478L53.5137 260.975L150.634 211.725L151.354 227.322L170.646 241.181Z" fill="#FF7094" style="fill:#FF7094;fill:color(display-p3 1.0000 0.4392 0.5794);fill-opacity:1;"/>
<path fill-rule="evenodd" clip-rule="evenodd" d="M222.745 283.525L277.52 255.749L277.519 255.749L222.745 283.525L222.745 283.525ZM102.75 344.374L52.8086 245.889C51.8095 243.919 52.5968 241.512 54.5671 240.513L135.006 199.722L131.768 193.363L44.559 237.587C42.5887 238.586 41.8014 240.993 42.8005 242.963L94.1607 344.245C95.1598 346.216 97.567 347.003 99.5373 346.004L102.75 344.374Z" fill="#FFF7F9" style="fill:#FFF7F9;fill:color(display-p3 1.0000 0.9683 0.9763);fill-opacity:1;"/>
<path d="M132.477 193L46.1918 236.755C44.2215 237.755 43.4342 240.162 44.4333 242.132L50.9587 255M193.96 298.119L101.17 345.173C99.1998 346.172 96.7926 345.384 95.7935 343.414L61.6078 276" stroke="#BC5B73" style="stroke:#BC5B73;stroke:color(display-p3 0.7373 0.3569 0.4510);stroke-opacity:1;" stroke-width="4" stroke-linecap="round"/>
<path fill-rule="evenodd" clip-rule="evenodd" d="M276.822 207.192L279.802 200.552L367.997 240.309C370.011 241.216 370.907 243.585 369.999 245.599L323.332 349.127C322.424 351.141 320.055 352.038 318.041 351.13L138 269.972L187.955 159.15L187.956 159.151L138.001 269.972L236.495 314.371L258.572 305.249L248.139 272.473L266.4 261.562L265.072 237.453L276.984 226.918L276.822 207.192Z" fill="#FFD3DE" style="fill:#FFD3DE;fill:color(display-p3 1.0000 0.8275 0.8706);fill-opacity:1;"/>
<path fill-rule="evenodd" clip-rule="evenodd" d="M266.377 261.172L346.666 297.363L361.182 265.161L276.767 227.11L265.072 237.453L266.377 261.172Z" fill="#FF7094" style="fill:#FF7094;fill:color(display-p3 1.0000 0.4392 0.5794);fill-opacity:1;"/>
<circle cx="300.522" cy="317.373" r="11.6602" transform="rotate(24.2646 300.522 317.373)" fill="#FF7094" style="fill:#FF7094;fill:color(display-p3 1.0000 0.4392 0.5794);fill-opacity:1;"/>
<circle cx="311.153" cy="322.164" r="11.6602" transform="rotate(24.2646 311.153 322.164)" fill="#FFC7D5" style="fill:#FFC7D5;fill:color(display-p3 1.0000 0.7804 0.8353);fill-opacity:1;"/>
<path fill-rule="evenodd" clip-rule="evenodd" d="M277.514 206.494L360.175 243.756C362.189 244.664 363.086 247.032 362.178 249.046L316.341 350.73L318.219 351.577C320.233 352.485 322.602 351.588 323.51 349.574L370.178 246.046C371.085 244.032 370.189 241.664 368.175 240.756L279.98 201L277.514 206.494ZM185.659 165.088L188.134 159.598L188.133 159.598L185.658 165.088L185.659 165.088ZM185.658 165.088L138.178 270.419L138.179 270.419L185.659 165.089L185.658 165.088Z" fill="#FFF7F9" style="fill:#FFF7F9;fill:color(display-p3 1.0000 0.9683 0.9763);fill-opacity:1;"/>
<path d="M279.307 201.15L367.502 240.906C369.516 241.814 370.413 244.183 369.505 246.197L357.838 272.079M236 314.968L317.547 351.728C319.561 352.635 321.929 351.739 322.837 349.725L346.171 297.961" stroke="#BC5B73" style="stroke:#BC5B73;stroke:color(display-p3 0.7373 0.3569 0.4510);stroke-opacity:1;" stroke-width="4" stroke-linecap="round"/>
<path d="M208 199.114C208.04 198.994 208.1 198.873 208.181 198.753C208.221 198.672 208.261 198.592 208.301 198.512C208.341 198.432 208.361 198.371 208.361 198.331C208.562 197.368 208.722 196.545 208.843 195.863C208.963 195.141 209.124 194.478 209.324 193.876C209.565 193.274 209.906 192.712 210.348 192.191C210.789 191.669 211.472 191.107 212.395 190.505C212.836 190.224 213.197 190.003 213.478 189.843C213.799 189.642 214.1 189.482 214.381 189.361C214.662 189.241 214.963 189.161 215.284 189.12C215.606 189.04 216.007 189 216.489 189C217.251 189 217.953 189.08 218.596 189.241C219.238 189.361 219.92 189.542 220.642 189.783C220.803 189.903 221.064 190.144 221.425 190.505C221.786 190.866 222.148 191.248 222.509 191.649C222.91 192.05 223.291 192.432 223.653 192.793C224.014 193.154 224.255 193.415 224.375 193.575C224.455 193.696 224.556 193.896 224.676 194.177C224.796 194.418 224.917 194.679 225.037 194.96C225.158 195.241 225.258 195.522 225.338 195.803C225.419 196.084 225.459 196.305 225.459 196.465V205.495C224.857 207.061 224.515 208.606 224.435 210.131C224.355 211.656 224.235 213.201 224.074 214.767C223.954 215.73 223.753 216.713 223.472 217.716C223.231 218.72 223.01 219.743 222.81 220.787V223.797C222.81 224.038 222.75 224.58 222.629 225.422C222.549 226.265 222.449 227.168 222.328 228.131C222.208 229.095 222.087 229.998 221.967 230.841C221.847 231.643 221.766 232.125 221.726 232.285C221.686 232.807 221.606 233.69 221.485 234.934C221.405 236.178 221.305 237.503 221.184 238.908C221.064 240.312 220.943 241.637 220.823 242.881C220.703 244.085 220.642 244.928 220.642 245.41C220.522 245.931 220.301 246.533 219.98 247.216C219.659 247.858 219.358 248.42 219.077 248.901H218.596C218.074 248.901 217.652 248.781 217.331 248.54C217.01 248.299 216.749 247.998 216.549 247.637C216.348 247.236 216.188 246.814 216.067 246.373C215.987 245.931 215.927 245.51 215.886 245.108C215.686 244.386 215.525 243.624 215.405 242.821C215.325 241.978 215.244 241.135 215.164 240.292C215.124 239.409 215.064 238.546 214.983 237.704C214.943 236.861 214.863 236.058 214.743 235.296C214.341 233.489 213.94 231.663 213.539 229.817C213.137 227.971 212.756 226.105 212.395 224.218C212.395 224.058 212.355 223.636 212.274 222.954C212.194 222.272 212.114 221.569 212.034 220.847C211.993 220.084 211.933 219.382 211.853 218.74C211.773 218.058 211.733 217.616 211.733 217.415C211.612 216.733 211.411 216.111 211.131 215.549C210.89 214.987 210.709 214.405 210.589 213.803C210.589 213.683 210.549 213.482 210.468 213.201C210.428 212.88 210.388 212.559 210.348 212.238C210.308 211.877 210.268 211.556 210.227 211.275C210.187 210.994 210.167 210.813 210.167 210.733C210.167 210.693 210.147 210.653 210.107 210.613C210.027 210.532 209.987 210.432 209.987 210.312C209.906 210.191 209.846 210.071 209.806 209.95C209.445 209.027 209.204 208.104 209.084 207.181C209.003 206.258 208.863 205.315 208.662 204.352C208.662 204.271 208.622 204.131 208.542 203.93C208.502 203.689 208.421 203.449 208.301 203.208C208.221 202.967 208.14 202.746 208.06 202.546C208.02 202.305 208 202.144 208 202.064V199.114ZM210.167 271.236C210.167 270.153 210.328 269.109 210.649 268.106C210.97 267.062 211.432 266.139 212.034 265.336C212.636 264.494 213.378 263.831 214.261 263.35C215.184 262.868 216.248 262.627 217.452 262.627C218.535 262.627 219.539 262.828 220.462 263.229C221.385 263.591 222.188 264.112 222.87 264.795C223.592 265.477 224.154 266.3 224.556 267.263C224.957 268.186 225.158 269.209 225.158 270.333C225.158 271.457 224.917 272.46 224.435 273.343C223.994 274.186 223.392 274.889 222.629 275.45C221.867 276.012 220.984 276.454 219.98 276.775C219.017 277.056 218.014 277.196 216.97 277.196C216.167 277.196 215.365 277.036 214.562 276.715C213.759 276.394 213.037 275.972 212.395 275.45C211.753 274.889 211.211 274.246 210.769 273.524C210.368 272.802 210.167 272.039 210.167 271.236Z" fill="#FF7094" style="fill:#FF7094;fill:color(display-p3 1.0000 0.4392 0.5794);fill-opacity:1;"/>
</svg>
